<?xml version="1.0" encoding="UTF-8" standalone="no"?>
<svg
   xmlns:dc="http://purl.org/dc/elements/1.1/"
   xmlns:cc="http://creativecommons.org/ns#"
   xmlns:rdf="http://www.w3.org/1999/02/22-rdf-syntax-ns#"
   xmlns:svg="http://www.w3.org/2000/svg"
   xmlns="http://www.w3.org/2000/svg"
   xmlns:sodipodi="http://sodipodi.sourceforge.net/DTD/sodipodi-0.dtd"
   xmlns:inkscape="http://www.inkscape.org/namespaces/inkscape"
   version="1.1"
   viewBox="0 0 649.2204 309.15253"
   stroke-miterlimit="10"
   id="svg237"
   sodipodi:docname="fig1 .svg"
   width="649.2204"
   height="309.15253"
   style="fill:none;stroke:none;stroke-linecap:square;stroke-miterlimit:10"
   inkscape:version="0.92.5 (2060ec1f9f, 2020-04-08)">
  <metadata
     id="metadata243">
    <rdf:RDF>
      <cc:Work
         rdf:about="">
        <dc:format>image/svg+xml</dc:format>
        <dc:type
           rdf:resource="http://purl.org/dc/dcmitype/StillImage" />
        <dc:title></dc:title>
      </cc:Work>
    </rdf:RDF>
  </metadata>
  <defs
     id="defs241" />
  <sodipodi:namedview
     pagecolor="#ffffff"
     bordercolor="#666666"
     borderopacity="1"
     objecttolerance="10"
     gridtolerance="10"
     guidetolerance="10"
     inkscape:pageopacity="0"
     inkscape:pageshadow="2"
     inkscape:window-width="1920"
     inkscape:window-height="961"
     id="namedview239"
     showgrid="false"
     fit-margin-top="0"
     fit-margin-left="0"
     fit-margin-right="0"
     fit-margin-bottom="0"
     inkscape:zoom="1.2291667"
     inkscape:cx="391.53159"
     inkscape:cy="134.85953"
     inkscape:window-x="1920"
     inkscape:window-y="27"
     inkscape:window-maximized="1"
     inkscape:current-layer="svg237" />
  <clipPath
     id="p.0">
    <path
       d="M 0,0 H 1024 V 768 H 0 Z"
       id="path2"
       inkscape:connector-curvature="0"
       style="clip-rule:nonzero" />
  </clipPath>
  <g
     clip-path="url(#p.0)"
     id="g235"
     transform="translate(-90.305084,-35.796608)">
    <path
       d="M 0,0 H 1024 V 768 H 0 Z"
       id="path5"
       inkscape:connector-curvature="0"
       style="fill:#000000;fill-opacity:0;fill-rule:evenodd" />
    <path
       d="m 378.01312,284.9449 v 0 c 0,-29.08411 24.4939,-52.66142 54.70865,-52.66142 v 0 c 14.50964,0 28.42502,5.54825 38.68487,15.42418 10.25986,9.87591 16.02381,23.27056 16.02381,37.23724 v 0 c 0,29.08411 -24.4939,52.66141 -54.70868,52.66141 v 0 c -30.21475,0 -54.70865,-23.5773 -54.70865,-52.66141 z"
       id="path7"
       inkscape:connector-curvature="0"
       style="fill:#ffffff;fill-rule:evenodd" />
    <path
       d="m 378.01312,284.9449 v 0 c 0,-29.08411 24.4939,-52.66142 54.70865,-52.66142 v 0 c 14.50964,0 28.42502,5.54825 38.68487,15.42418 10.25986,9.87591 16.02381,23.27056 16.02381,37.23724 v 0 c 0,29.08411 -24.4939,52.66141 -54.70868,52.66141 v 0 c -30.21475,0 -54.70865,-23.5773 -54.70865,-52.66141 z"
       id="path9"
       inkscape:connector-curvature="0"
       style="fill-rule:evenodd;stroke:#000000;stroke-width:2;stroke-linecap:butt;stroke-linejoin:round" />
    <path
       d="m 397.95013,265.00787 h 69.5433 v 43.96851 h -69.5433 z"
       id="path11"
       inkscape:connector-curvature="0"
       style="fill:#000000;fill-opacity:0;fill-rule:evenodd" />
    <path
       d="m 410.52826,285.261 q 0.3125,0 0.60937,-0.0469 0.3125,-0.0469 0.54688,-0.15625 0.25,-0.125 0.40625,-0.34375 0.15625,-0.21875 0.15625,-0.57813 0,-0.26562 -0.15625,-0.45312 -0.14063,-0.1875 -0.375,-0.34375 -0.21875,-0.17188 -0.5,-0.29688 -0.28125,-0.14062 -0.5625,-0.29687 -0.35938,-0.21875 -0.6875,-0.45313 -0.3125,-0.25 -0.54688,-0.54687 -0.21875,-0.29688 -0.35937,-0.65625 -0.125,-0.375 -0.125,-0.85938 0,-0.60937 0.23437,-1.125 0.23438,-0.53125 0.6875,-0.92187 0.46875,-0.39063 1.15625,-0.60938 0.70313,-0.21875 1.625,-0.21875 0.4375,0 0.82813,0.0781 0.40625,0.0781 0.75,0.1875 0.34375,0.0937 0.625,0.23437 0.29687,0.14063 0.5,0.28125 l -0.875,1.53125 q -0.32813,-0.25 -0.8125,-0.42187 -0.48438,-0.1875 -1.03125,-0.1875 -0.3125,0 -0.59375,0.0625 -0.28125,0.0469 -0.5,0.17187 -0.20313,0.125 -0.32813,0.32813 -0.125,0.20312 -0.125,0.5 0,0.26562 0.0937,0.45312 0.0937,0.17188 0.25,0.3125 0.17188,0.125 0.375,0.23438 0.21875,0.10937 0.45313,0.21875 0.42187,0.21875 0.79687,0.46875 0.39063,0.23437 0.6875,0.54687 0.29688,0.3125 0.46875,0.71875 0.17188,0.39063 0.17188,0.9375 0,0.75 -0.28125,1.3125 -0.28125,0.5625 -0.79688,0.9375 -0.5,0.375 -1.20312,0.54688 -0.6875,0.1875 -1.54688,0.1875 -0.5625,0 -1.04687,-0.0937 -0.48438,-0.0937 -0.875,-0.21875 -0.39063,-0.125 -0.6875,-0.26563 -0.28125,-0.15625 -0.45313,-0.28125 l 0.875,-1.57812 q 0.17188,0.10937 0.39063,0.23437 0.23437,0.10938 0.51562,0.21875 0.28125,0.10938 0.59375,0.1875 0.32813,0.0625 0.67188,0.0625 z m 6.7785,1.54688 h -1.96875 l 1.65625,-7.01563 h 1.98438 z m 0.95313,-7.85938 q -0.40625,0 -0.75,-0.25 -0.32813,-0.25 -0.32813,-0.75 0,-0.28125 0.10938,-0.53125 0.125,-0.25 0.3125,-0.42187 0.1875,-0.1875 0.42187,-0.28125 0.25,-0.10938 0.53125,-0.10938 0.42188,0 0.75,0.25 0.32813,0.23438 0.32813,0.75 0,0.26563 -0.10938,0.51563 -0.10937,0.25 -0.29687,0.4375 -0.1875,0.17187 -0.4375,0.28125 -0.25,0.10937 -0.53125,0.10937 z m 2.45935,1.17188 q 0.21875,-0.0625 0.48437,-0.15625 0.28125,-0.0937 0.625,-0.15625 0.34375,-0.0781 0.76563,-0.125 0.42187,-0.0469 0.95312,-0.0469 1.5625,0 2.14063,0.90625 0.59375,0.90625 0.21875,2.48438 l -0.90625,3.78125 h -1.98438 l 0.875,-3.70313 q 0.0781,-0.34375 0.125,-0.67187 0.0469,-0.32813 -0.0156,-0.57813 -0.0469,-0.25 -0.25,-0.39062 -0.1875,-0.15625 -0.57813,-0.15625 -0.39062,0 -0.78125,0.0781 l -1.29687,5.42188 h -1.98438 z m 8.99454,2.20312 q 0.79687,-0.64062 1.5,-1.29687 0.71875,-0.67188 1.21875,-1.23438 h 2.23437 q -0.73437,0.82813 -1.54687,1.625 -0.8125,0.79688 -1.84375,1.6875 0.28125,0.34375 0.5625,0.79688 0.28125,0.45312 0.54687,0.95312 0.26563,0.48438 0.48438,1 0.21875,0.5 0.35937,0.95313 h -2.20312 q -0.125,-0.34375 -0.3125,-0.75 -0.17188,-0.42188 -0.39063,-0.82813 -0.21875,-0.40625 -0.46875,-0.79687 -0.23437,-0.39063 -0.46875,-0.6875 l -0.75,3.0625 h -1.96875 l 2.39063,-10.01563 2.0625,-0.32812 z m 13.34765,-3.17187 q -0.60937,0 -1.14062,0.3125 -0.51563,0.3125 -0.90625,0.85937 -0.39063,0.53125 -0.625,1.21875 -0.21875,0.6875 -0.21875,1.42188 0,1 0.42187,1.625 0.42188,0.625 1.375,0.625 0.60938,0 1.125,-0.3125 0.53125,-0.32813 0.92188,-0.85938 0.40625,-0.54687 0.625,-1.21875 0.21875,-0.6875 0.21875,-1.4375 0,-1 -0.42188,-1.60937 -0.42187,-0.625 -1.375,-0.625 z m -1.3125,7.84375 q -0.8125,0 -1.5,-0.26563 -0.67187,-0.26562 -1.17187,-0.76562 -0.48438,-0.5 -0.76563,-1.21875 -0.26562,-0.71875 -0.26562,-1.625 0,-1.04688 0.35937,-2.0625 0.35938,-1.03125 1.03125,-1.84375 0.67188,-0.82813 1.64063,-1.34375 0.98437,-0.51563 2.20312,-0.51563 0.8125,0 1.48438,0.26563 0.6875,0.26562 1.17187,0.76562 0.5,0.5 0.76563,1.21875 0.28125,0.71875 0.28125,1.625 0,1.04688 -0.35938,2.07813 -0.34375,1.03125 -1.01562,1.85937 -0.67188,0.8125 -1.65625,1.32813 -0.96875,0.5 -2.20313,0.5 z m 10.49561,-9.53125 q 0.84375,0 1.51562,0.1875 0.67188,0.17187 1.14063,0.51562 0.46875,0.34375 0.71875,0.84375 0.26562,0.48438 0.26562,1.09375 0,1 -0.39062,1.70313 -0.39063,0.6875 -1.07813,1.10937 -0.67187,0.42188 -1.59375,0.60938 -0.92187,0.1875 -2,0.1875 h -0.51562 l -0.75,3.09375 h -2.0625 l 2.17187,-9.10938 q 0.71875,-0.125 1.35938,-0.17187 0.65625,-0.0625 1.21875,-0.0625 z m -0.17188,1.75 q -0.21875,0 -0.39062,0.0156 -0.15625,0 -0.3125,0.0156 l -0.64063,2.71875 h 0.53125 q 0.54688,0 1,-0.0781 0.46875,-0.0937 0.79688,-0.28125 0.32812,-0.20312 0.5,-0.51562 0.1875,-0.3125 0.1875,-0.76563 0,-0.60937 -0.4375,-0.85937 -0.42188,-0.25 -1.23438,-0.25 z"
       id="path13"
       inkscape:connector-curvature="0"
       style="fill:#ffffff;fill-rule:nonzero" />
    <path
       d="m 296.74557,247.83362 97.29135,-0.12598"
       id="path15"
       inkscape:connector-curvature="0"
       style="fill:#000000;fill-opacity:0;fill-rule:evenodd" />
    <path
       d="m 296.74557,247.83362 90.43716,-0.1171"
       id="path17"
       inkscape:connector-curvature="0"
       style="fill-rule:evenodd;stroke:#000000;stroke-width:2;stroke-linecap:butt;stroke-linejoin:round" />
    <path
       d="m 387.18274,247.7165 -2.24625,2.25208 6.17661,-2.25716 -6.18244,-2.24117 z"
       id="path19"
       inkscape:connector-curvature="0"
       style="fill:#000000;fill-rule:evenodd;stroke:#000000;stroke-width:2;stroke-linecap:butt" />
    <path
       d="m 293.47,323.09552 100.56692,-0.91339"
       id="path21"
       inkscape:connector-curvature="0"
       style="fill:#000000;fill-opacity:0;fill-rule:evenodd" />
    <path
       d="m 300.32388,323.03326 93.71301,-0.85114"
       id="path23"
       inkscape:connector-curvature="0"
       style="fill-rule:evenodd;stroke:#000000;stroke-width:2;stroke-linecap:butt;stroke-linejoin:round" />
    <path
       d="m 300.32388,323.03326 2.22864,-2.2695 -6.15885,2.30521 6.19971,2.19293 z"
       id="path25"
       inkscape:connector-curvature="0"
       style="fill:#000000;fill-rule:evenodd;stroke:#000000;stroke-width:2;stroke-linecap:butt" />
    <path
       d="m 566.9972,247.58165 -95.59055,0.12599"
       id="path27"
       inkscape:connector-curvature="0"
       style="fill:#000000;fill-opacity:0;fill-rule:evenodd" />
    <path
       d="m 560.14307,247.5907 -88.73642,0.11694"
       id="path29"
       inkscape:connector-curvature="0"
       style="fill-rule:evenodd;stroke:#000000;stroke-width:2;stroke-linecap:butt;stroke-linejoin:round" />
    <path
       d="m 560.14307,247.59068 -2.24622,2.25214 6.17658,-2.25731 -6.1825,-2.24103 z"
       id="path31"
       inkscape:connector-curvature="0"
       style="fill:#000000;fill-rule:evenodd;stroke:#000000;stroke-width:2;stroke-linecap:butt" />
    <path
       d="m 567.46967,322.08765 -96.06302,0.0945"
       id="path33"
       inkscape:connector-curvature="0"
       style="fill:#000000;fill-opacity:0;fill-rule:evenodd" />
    <path
       d="m 560.6155,322.0944 -82.35465,0.081"
       id="path35"
       inkscape:connector-curvature="0"
       style="fill-rule:evenodd;stroke:#000000;stroke-width:2;stroke-linecap:butt;stroke-linejoin:round" />
    <path
       d="m 560.6155,322.0944 -2.24695,2.25137 6.17731,-2.25525 -6.18176,-2.24307 z"
       id="path37"
       inkscape:connector-curvature="0"
       style="fill:#000000;fill-rule:evenodd;stroke:#000000;stroke-width:2;stroke-linecap:butt" />
    <path
       d="m 478.26083,322.17538 2.24695,-2.25137 -6.17731,2.25525 6.18173,2.24307 z"
       id="path39"
       inkscape:connector-curvature="0"
       style="fill:#000000;fill-rule:evenodd;stroke:#000000;stroke-width:2;stroke-linecap:butt" />
    <path
       d="M 326.50394,219.50394 H 362 v 30.70866 h -35.49606 z"
       id="path41"
       inkscape:connector-curvature="0"
       style="fill:#000000;fill-opacity:0;fill-rule:evenodd" />
    <path
       d="m 340.62894,230.9952 v 0.78125 h -2.03125 v 5.6875 h -0.90625 v -5.6875 h -2.03125 v -0.78125 z m 1.02039,1.34375 q 0.53125,-0.20313 1.03125,-0.53125 0.5,-0.32813 0.92187,-0.8125 h 0.60938 v 6.46875 h -0.85938 v -5.26563 q -0.10937,0.10938 -0.28125,0.21875 -0.15625,0.10938 -0.35937,0.21875 -0.1875,0.0937 -0.40625,0.1875 -0.20313,0.0937 -0.39063,0.15625 z"
       id="path43"
       inkscape:connector-curvature="0"
       style="fill:#000000;fill-rule:nonzero" />
    <path
       d="m 326.021,294.48294 h 35.49606 v 30.70865 H 326.021 Z"
       id="path45"
       inkscape:connector-curvature="0"
       style="fill:#000000;fill-opacity:0;fill-rule:evenodd" />
    <path
       d="m 340.146,305.97418 v 0.78125 h -2.03125 v 5.6875 h -0.90625 v -5.6875 h -2.03125 v -0.78125 z m 4.50476,1.65625 q 0,0.32812 -0.14062,0.64062 -0.14063,0.3125 -0.35938,0.625 -0.21875,0.29688 -0.5,0.59375 -0.28125,0.29688 -0.5625,0.57813 -0.15625,0.15625 -0.375,0.375 -0.20312,0.20312 -0.39062,0.4375 -0.1875,0.23437 -0.3125,0.45312 -0.125,0.21875 -0.125,0.375 h 2.98437 v 0.73438 h -3.92187 q -0.0156,-0.0625 -0.0156,-0.10938 0,-0.0625 0,-0.10937 0,-0.4375 0.14063,-0.8125 0.15625,-0.375 0.39062,-0.70313 0.23438,-0.34375 0.51563,-0.64062 0.29687,-0.29688 0.5625,-0.57813 0.23437,-0.23437 0.4375,-0.45312 0.21875,-0.21875 0.375,-0.4375 0.17187,-0.21875 0.26562,-0.45313 0.10938,-0.23437 0.10938,-0.48437 0,-0.28125 -0.0937,-0.46875 -0.0937,-0.20313 -0.25,-0.32813 -0.14063,-0.14062 -0.34375,-0.20312 -0.1875,-0.0625 -0.42188,-0.0625 -0.26562,0 -0.5,0.0781 -0.21875,0.0781 -0.39062,0.17188 -0.17188,0.0937 -0.29688,0.20312 -0.125,0.10938 -0.1875,0.17188 l -0.4375,-0.625 q 0.0937,-0.0937 0.25,-0.21875 0.17188,-0.14063 0.40625,-0.26563 0.23438,-0.125 0.51563,-0.20312 0.29687,-0.0781 0.64062,-0.0781 1.01563,0 1.51563,0.46875 0.51562,0.46875 0.51562,1.32813 z"
       id="path47"
       inkscape:connector-curvature="0"
       style="fill:#000000;fill-rule:nonzero" />
    <path
       d="m 512.52234,219.50394 h 35.49603 v 30.70866 h -35.49603 z"
       id="path49"
       inkscape:connector-curvature="0"
       style="fill:#000000;fill-opacity:0;fill-rule:evenodd" />
    <path
       d="m 526.64734,230.9952 v 0.78125 h -2.03125 v 5.6875 h -0.90625 v -5.6875 h -2.03125 v -0.78125 z m 2.11597,5.84375 q 0.3125,0 0.54687,-0.0156 0.23438,-0.0156 0.39063,-0.0469 v -1.45313 q -0.0937,-0.0469 -0.3125,-0.0781 -0.20313,-0.0312 -0.5,-0.0312 -0.1875,0 -0.40625,0.0312 -0.21875,0.0312 -0.40625,0.125 -0.1875,0.0781 -0.3125,0.23437 -0.10938,0.15625 -0.10938,0.40625 0,0.46875 0.29688,0.65625 0.29687,0.17188 0.8125,0.17188 z m -0.0781,-4.34375 q 0.51563,0 0.875,0.14062 0.35938,0.125 0.57813,0.375 0.23437,0.25 0.3125,0.59375 0.0937,0.32813 0.0937,0.75 v 3.03125 q -0.10938,0.0156 -0.3125,0.0469 -0.1875,0.0312 -0.45313,0.0625 -0.25,0.0312 -0.54687,0.0469 -0.28125,0.0312 -0.57813,0.0312 -0.40625,0 -0.75,-0.0937 -0.34375,-0.0781 -0.59375,-0.25 -0.25,-0.1875 -0.39062,-0.48437 -0.14063,-0.3125 -0.14063,-0.73438 0,-0.39062 0.15625,-0.67187 0.17188,-0.29688 0.4375,-0.46875 0.28125,-0.1875 0.65625,-0.26563 0.375,-0.0937 0.78125,-0.0937 0.14063,0 0.28125,0.0156 0.14063,0.0156 0.26563,0.0469 0.125,0.0156 0.21875,0.0469 0.0937,0.0156 0.125,0.0156 v -0.23437 q 0,-0.21875 -0.0469,-0.42188 -0.0469,-0.21875 -0.17187,-0.375 -0.10938,-0.17187 -0.32813,-0.26562 -0.20312,-0.0937 -0.54687,-0.0937 -0.42188,0 -0.75,0.0625 -0.3125,0.0469 -0.48438,0.10937 l -0.0937,-0.70312 q 0.17188,-0.0781 0.5625,-0.14063 0.39063,-0.0781 0.84375,-0.0781 z"
       id="path51"
       inkscape:connector-curvature="0"
       style="fill:#000000;fill-rule:nonzero" />
    <path
       d="m 512.52234,294.48294 h 35.49603 v 30.70865 h -35.49603 z"
       id="path53"
       inkscape:connector-curvature="0"
       style="fill:#000000;fill-opacity:0;fill-rule:evenodd" />
    <path
       d="m 526.64734,305.97418 v 0.78125 h -2.03125 v 5.6875 h -0.90625 v -5.6875 h -2.03125 v -0.78125 z m 1.75476,1.82812 q 0.15625,-0.0937 0.48438,-0.20312 0.32812,-0.125 0.73437,-0.125 0.53125,0 0.9375,0.1875 0.40625,0.1875 0.6875,0.53125 0.28125,0.32812 0.42188,0.79687 0.14062,0.46875 0.14062,1.03125 0,0.57813 -0.17187,1.0625 -0.17188,0.46875 -0.48438,0.79688 -0.3125,0.3125 -0.76562,0.5 -0.45313,0.17187 -1.01563,0.17187 -0.59375,0 -1.0625,-0.0937 -0.46875,-0.0781 -0.76562,-0.15625 v -6.95312 l 0.85937,-0.14063 z m 0,3.89063 q 0.14063,0.0312 0.375,0.0625 0.23438,0.0312 0.59375,0.0312 0.70313,0 1.10938,-0.45313 0.42187,-0.46875 0.42187,-1.3125 0,-0.375 -0.0781,-0.70312 -0.0625,-0.32813 -0.23438,-0.5625 -0.17187,-0.23438 -0.4375,-0.375 -0.26562,-0.14063 -0.64062,-0.14063 -0.34375,0 -0.65625,0.125 -0.29688,0.125 -0.45313,0.25 z"
       id="path55"
       inkscape:connector-curvature="0"
       style="fill:#000000;fill-rule:nonzero" />
    <path
       d="m 415.8596,201.5748 h 42.80313 v 30.70866 H 415.8596 Z"
       id="path57"
       inkscape:connector-curvature="0"
       style="fill:#000000;fill-opacity:0;fill-rule:evenodd" />
    <path
       d="m 425.40646,216.30043 q 0,-0.82813 0.23437,-1.45313 0.25,-0.64062 0.67188,-1.0625 0.4375,-0.4375 1,-0.64062 0.5625,-0.21875 1.1875,-0.21875 0.625,0 1.17187,0.21875 0.5625,0.20312 0.98438,0.64062 0.42187,0.42188 0.67187,1.0625 0.25,0.625 0.25,1.45313 0,0.82812 -0.25,1.46875 -0.25,0.625 -0.67187,1.04687 -0.42188,0.42188 -0.98438,0.64063 -0.54687,0.21875 -1.17187,0.21875 -0.625,0 -1.1875,-0.21875 -0.5625,-0.21875 -1,-0.64063 -0.42188,-0.42187 -0.67188,-1.04687 -0.23437,-0.64063 -0.23437,-1.46875 z m 0.95312,0 q 0,0.57812 0.14063,1.0625 0.15625,0.48437 0.42187,0.82812 0.28125,0.32813 0.67188,0.51563 0.40625,0.17187 0.89062,0.17187 0.5,0 0.89063,-0.17187 0.39062,-0.1875 0.65625,-0.51563 0.28125,-0.34375 0.42187,-0.82812 0.15625,-0.48438 0.15625,-1.0625 0,-0.59375 -0.15625,-1.0625 -0.14062,-0.48438 -0.42187,-0.8125 -0.26563,-0.34375 -0.65625,-0.53125 -0.39063,-0.1875 -0.89063,-0.1875 -0.48437,0 -0.89062,0.1875 -0.39063,0.1875 -0.67188,0.53125 -0.26562,0.32812 -0.42187,0.8125 -0.14063,0.46875 -0.14063,1.0625 z m 8.27289,-3.29688 q 1.35938,0 2.09375,0.51563 0.73438,0.51562 0.73438,1.54687 0,0.5625 -0.20313,0.96875 -0.20312,0.39063 -0.57812,0.64063 -0.375,0.23437 -0.92188,0.35937 -0.53125,0.10938 -1.21875,0.10938 h -0.71875 v 2.39062 h -0.90625 v -6.375 q 0.39063,-0.0937 0.85938,-0.125 0.46875,-0.0312 0.85937,-0.0312 z m 0.0781,0.79688 q -0.57813,0 -0.89063,0.0312 v 2.53125 h 0.6875 q 0.46875,0 0.82813,-0.0625 0.375,-0.0625 0.625,-0.20313 0.26562,-0.14062 0.40625,-0.39062 0.14062,-0.25 0.14062,-0.65625 0,-0.35938 -0.14062,-0.59375 -0.14063,-0.25 -0.39063,-0.39063 -0.25,-0.15625 -0.57812,-0.20312 -0.32813,-0.0625 -0.6875,-0.0625 z m 6.71838,5.73437 q -0.0937,-0.20312 -0.25,-0.45312 -0.14062,-0.25 -0.32812,-0.51563 -0.17188,-0.26562 -0.35938,-0.53125 -0.1875,-0.26562 -0.35937,-0.5 -0.17188,0.23438 -0.35938,0.5 -0.1875,0.26563 -0.35937,0.53125 -0.17188,0.26563 -0.32813,0.51563 -0.15625,0.25 -0.25,0.45312 h -0.89062 q 0.3125,-0.64062 0.76562,-1.29687 0.45313,-0.65625 0.90625,-1.25 l -1.60937,-2.29688 h 0.98437 l 1.15625,1.6875 1.17188,-1.6875 h 0.92187 l -1.57812,2.23438 q 0.45312,0.60937 0.92187,1.29687 0.46875,0.67188 0.79688,1.3125 z"
       id="path59"
       inkscape:connector-curvature="0"
       style="fill:#000000;fill-rule:nonzero" />
    <path
       d="m 246.78346,266.29398 h 42.80315 v 30.70865 h -42.80315 z"
       id="path61"
       inkscape:connector-curvature="0"
       style="fill:#000000;fill-opacity:0;fill-rule:evenodd" />
    <path
       d="m 260.47098,283.47272 v 0.78125 h -3.89063 v -6.46875 h 0.90625 v 5.6875 z m 1.76315,0.78125 h -0.85937 v -4.84375 h 0.85937 z m -0.4375,-5.73438 q -0.23437,0 -0.40625,-0.14062 -0.15625,-0.15625 -0.15625,-0.42188 0,-0.26562 0.15625,-0.40625 0.17188,-0.15625 0.40625,-0.15625 0.23438,0 0.39063,0.15625 0.17187,0.14063 0.17187,0.40625 0,0.26563 -0.17187,0.42188 -0.15625,0.14062 -0.39063,0.14062 z m 1.93814,1.03125 q 0.29688,-0.0781 0.78125,-0.15625 0.5,-0.0937 1.14063,-0.0937 0.57812,0 0.95312,0.17188 0.39063,0.15625 0.625,0.45312 0.23438,0.28125 0.32813,0.70313 0.0937,0.40625 0.0937,0.90625 v 2.71875 h -0.875 v -2.53125 q 0,-0.45313 -0.0625,-0.76563 -0.0625,-0.32812 -0.20313,-0.51562 -0.14062,-0.20313 -0.375,-0.28125 -0.23437,-0.0937 -0.57812,-0.0937 -0.14063,0 -0.29688,0.0156 -0.14062,0 -0.28125,0.0156 -0.125,0.0156 -0.23437,0.0312 -0.10938,0.0156 -0.15625,0.0312 v 4.09375 h -0.85938 z m 5.07309,2.28125 q 0,-0.64062 0.1875,-1.10937 0.1875,-0.48438 0.5,-0.79688 0.3125,-0.32812 0.70313,-0.48437 0.40625,-0.15625 0.82812,-0.15625 0.98438,0 1.5,0.60937 0.51563,0.60938 0.51563,1.85938 0,0.0625 0,0.15625 0,0.0781 0,0.15625 h -3.32813 q 0.0625,0.75 0.4375,1.14062 0.39063,0.39063 1.20313,0.39063 0.45312,0 0.76562,-0.0781 0.3125,-0.0781 0.46875,-0.15625 l 0.125,0.73438 q -0.15625,0.0781 -0.5625,0.17187 -0.39062,0.0937 -0.89062,0.0937 -0.64063,0 -1.10938,-0.1875 -0.45312,-0.1875 -0.75,-0.51562 -0.29687,-0.34375 -0.45312,-0.79688 -0.14063,-0.46875 -0.14063,-1.03125 z m 3.34375,-0.46875 q 0,-0.59375 -0.3125,-0.96875 -0.29687,-0.375 -0.82812,-0.375 -0.29688,0 -0.53125,0.125 -0.21875,0.10938 -0.375,0.29688 -0.15625,0.1875 -0.25,0.4375 -0.0937,0.23437 -0.10938,0.48437 z m 5.30817,0.8125 q 0,0.46875 -0.0937,0.875 -0.0937,0.39063 -0.34375,0.70313 -0.25,0.29687 -0.67187,0.46875 -0.40625,0.17187 -1.03125,0.17187 -0.3125,0 -0.57813,-0.0625 -0.26562,-0.0469 -0.48437,-0.125 -0.21875,-0.0781 -0.375,-0.15625 -0.15625,-0.0937 -0.25,-0.17187 l 0.34375,-0.71875 q 0.20312,0.14062 0.51562,0.29687 0.3125,0.14063 0.78125,0.14063 0.67188,0 0.96875,-0.32813 0.3125,-0.34375 0.3125,-1.1875 v -4.29687 h 0.90625 z"
       id="path63"
       inkscape:connector-curvature="0"
       style="fill:#000000;fill-rule:nonzero" />
    <path
       d="m 563.2838,266.29398 h 53.70075 v 30.70865 H 563.2838 Z"
       id="path65"
       inkscape:connector-curvature="0"
       style="fill:#000000;fill-opacity:0;fill-rule:evenodd" />
    <path
       d="m 576.9713,283.47272 v 0.78125 h -3.89062 v -6.46875 h 0.90625 v 5.6875 z m 1.76318,0.78125 h -0.85937 v -4.84375 h 0.85937 z m -0.4375,-5.73438 q -0.23437,0 -0.40625,-0.14062 -0.15625,-0.15625 -0.15625,-0.42188 0,-0.26562 0.15625,-0.40625 0.17188,-0.15625 0.40625,-0.15625 0.23438,0 0.39063,0.15625 0.17187,0.14063 0.17187,0.40625 0,0.26563 -0.17187,0.42188 -0.15625,0.14062 -0.39063,0.14062 z m 1.93811,1.03125 q 0.29688,-0.0781 0.78125,-0.15625 0.5,-0.0937 1.14063,-0.0937 0.57812,0 0.95312,0.17188 0.39063,0.15625 0.625,0.45312 0.23438,0.28125 0.32813,0.70313 0.0937,0.40625 0.0937,0.90625 v 2.71875 h -0.875 v -2.53125 q 0,-0.45313 -0.0625,-0.76563 -0.0625,-0.32812 -0.20313,-0.51562 -0.14062,-0.20313 -0.375,-0.28125 -0.23437,-0.0937 -0.57812,-0.0937 -0.14063,0 -0.29688,0.0156 -0.14062,0 -0.28125,0.0156 -0.125,0.0156 -0.23437,0.0312 -0.10938,0.0156 -0.15625,0.0312 v 4.09375 h -0.85938 z m 5.07312,2.28125 q 0,-0.64062 0.1875,-1.10937 0.1875,-0.48438 0.5,-0.79688 0.3125,-0.32812 0.70313,-0.48437 0.40625,-0.15625 0.82812,-0.15625 0.98438,0 1.5,0.60937 0.51563,0.60938 0.51563,1.85938 0,0.0625 0,0.15625 0,0.0781 0,0.15625 h -3.32813 q 0.0625,0.75 0.4375,1.14062 0.39063,0.39063 1.20313,0.39063 0.45312,0 0.76562,-0.0781 0.3125,-0.0781 0.46875,-0.15625 l 0.125,0.73438 q -0.15625,0.0781 -0.5625,0.17187 -0.39062,0.0937 -0.89062,0.0937 -0.64063,0 -1.10938,-0.1875 -0.45312,-0.1875 -0.75,-0.51562 -0.29687,-0.34375 -0.45312,-0.79688 -0.14063,-0.46875 -0.14063,-1.03125 z m 3.34375,-0.46875 q 0,-0.59375 -0.3125,-0.96875 -0.29687,-0.375 -0.82812,-0.375 -0.29688,0 -0.53125,0.125 -0.21875,0.10938 -0.375,0.29688 -0.15625,0.1875 -0.25,0.4375 -0.0937,0.23437 -0.10938,0.48437 z m 6.99567,-3.57812 q -0.29687,0.32812 -0.65625,0.71875 -0.35937,0.375 -0.76562,0.78125 -0.39063,0.40625 -0.78125,0.79687 -0.39063,0.39063 -0.73438,0.73438 0.39063,0.28125 0.84375,0.6875 0.45313,0.40625 0.875,0.875 0.42188,0.46875 0.79688,0.95312 0.39062,0.48438 0.64062,0.92188 h -1.0625 q -0.28125,-0.4375 -0.65625,-0.875 -0.35937,-0.45313 -0.76562,-0.85938 -0.40625,-0.40625 -0.82813,-0.75 -0.40625,-0.34375 -0.79687,-0.57812 v 3.0625 h -0.90625 v -6.46875 h 0.90625 v 2.85937 q 0.32812,-0.3125 0.71875,-0.6875 0.39062,-0.39062 0.76562,-0.78125 0.39063,-0.39062 0.73438,-0.75 0.34375,-0.35937 0.57812,-0.64062 z"
       id="path67"
       inkscape:connector-curvature="0"
       style="fill:#000000;fill-rule:nonzero" />
    <path
       d="m 218.48819,257.1391 h 39.49606 v 42.01575 h -39.49606 z"
       id="path69"
       inkscape:connector-curvature="0"
       style="fill:#000000;fill-opacity:0;fill-rule:evenodd" />
    <path
       d="m 229.17569,284.0591 v -1.875 h 1.875 v 1.875 z m 5.1833,0 v -1.875 h 1.875 v 1.875 z m 5.18331,0 v -1.875 h 1.875 v 1.875 z"
       id="path71"
       inkscape:connector-curvature="0"
       style="fill:#000000;fill-rule:nonzero" />
    <path
       d="m 601.9869,257.1391 h 39.49603 v 42.01575 H 601.9869 Z"
       id="path73"
       inkscape:connector-curvature="0"
       style="fill:#000000;fill-opacity:0;fill-rule:evenodd" />
    <path
       d="m 612.6744,284.0591 v -1.875 h 1.875 v 1.875 z m 5.18329,0 v -1.875 h 1.875 v 1.875 z m 5.18329,0 v -1.875 h 1.875 v 1.875 z"
       id="path75"
       inkscape:connector-curvature="0"
       style="fill:#000000;fill-rule:nonzero" />
    <path
       d="m 155.98425,285.33334 v 0 c 0,-15.04651 12.64883,-27.24411 28.25197,-27.24411 v 0 c 7.49289,0 14.67888,2.87036 19.97716,7.97961 5.29828,5.10926 8.27481,12.03891 8.27481,19.2645 v 0 c 0,15.04648 -12.64884,27.24408 -28.25197,27.24408 v 0 c -15.60314,0 -28.25197,-12.1976 -28.25197,-27.24408 z"
       id="path77"
       inkscape:connector-curvature="0"
       style="fill:#ffffff;fill-rule:evenodd" />
    <path
       d="m 155.98425,285.33334 v 0 c 0,-15.04651 12.64883,-27.24411 28.25197,-27.24411 v 0 c 7.49289,0 14.67888,2.87036 19.97716,7.97961 5.29828,5.10926 8.27481,12.03891 8.27481,19.2645 v 0 c 0,15.04648 -12.64884,27.24408 -28.25197,27.24408 v 0 c -15.60314,0 -28.25197,-12.1976 -28.25197,-27.24408 z"
       id="path79"
       inkscape:connector-curvature="0"
       style="fill-rule:evenodd;stroke:#000000;stroke-width:2;stroke-linecap:butt;stroke-linejoin:round;stroke-dasharray:2, 6" />
    <path
       d="m 167.54724,269.979 h 42.80315 v 30.70865 h -42.80315 z"
       id="path81"
       inkscape:connector-curvature="0"
       style="fill:#000000;fill-opacity:0;fill-rule:evenodd" />
    <path
       d="m 177.09412,284.70462 q 0,-0.82813 0.23437,-1.45313 0.25,-0.64062 0.67188,-1.0625 0.4375,-0.4375 1,-0.64062 0.5625,-0.21875 1.1875,-0.21875 0.625,0 1.17187,0.21875 0.5625,0.20312 0.98438,0.64062 0.42187,0.42188 0.67187,1.0625 0.25,0.625 0.25,1.45313 0,0.82812 -0.25,1.46875 -0.25,0.625 -0.67187,1.04687 -0.42188,0.42188 -0.98438,0.64063 -0.54687,0.21875 -1.17187,0.21875 -0.625,0 -1.1875,-0.21875 -0.5625,-0.21875 -1,-0.64063 -0.42188,-0.42187 -0.67188,-1.04687 -0.23437,-0.64063 -0.23437,-1.46875 z m 0.95312,0 q 0,0.57812 0.14063,1.0625 0.15625,0.48437 0.42187,0.82812 0.28125,0.32813 0.67188,0.51563 0.40625,0.17187 0.89062,0.17187 0.5,0 0.89063,-0.17187 0.39062,-0.1875 0.65625,-0.51563 0.28125,-0.34375 0.42187,-0.82812 0.15625,-0.48438 0.15625,-1.0625 0,-0.59375 -0.15625,-1.0625 -0.14062,-0.48438 -0.42187,-0.8125 -0.26563,-0.34375 -0.65625,-0.53125 -0.39063,-0.1875 -0.89063,-0.1875 -0.48437,0 -0.89062,0.1875 -0.39063,0.1875 -0.67188,0.53125 -0.26562,0.32812 -0.42187,0.8125 -0.14063,0.46875 -0.14063,1.0625 z m 8.27291,-3.29688 q 1.35937,0 2.09375,0.51563 0.73437,0.51562 0.73437,1.54687 0,0.5625 -0.20312,0.96875 -0.20313,0.39063 -0.57813,0.64063 -0.375,0.23437 -0.92187,0.35937 -0.53125,0.10938 -1.21875,0.10938 h -0.71875 v 2.39062 h -0.90625 v -6.375 q 0.39062,-0.0937 0.85937,-0.125 0.46875,-0.0312 0.85938,-0.0312 z m 0.0781,0.79688 q -0.57812,0 -0.89062,0.0312 v 2.53125 h 0.6875 q 0.46875,0 0.82812,-0.0625 0.375,-0.0625 0.625,-0.20313 0.26563,-0.14062 0.40625,-0.39062 0.14063,-0.25 0.14063,-0.65625 0,-0.35938 -0.14063,-0.59375 -0.14062,-0.25 -0.39062,-0.39063 -0.25,-0.15625 -0.57813,-0.20312 -0.32812,-0.0625 -0.6875,-0.0625 z m 3.34297,6.64062 q 0.10938,0.0469 0.26563,0.0781 0.17187,0.0469 0.32812,0.0469 0.51563,0 0.79688,-0.23437 0.29687,-0.21875 0.53125,-0.73438 -0.59375,-1.10937 -1.10938,-2.35937 -0.5,-1.26563 -0.82812,-2.54688 h 0.92187 q 0.10938,0.40625 0.25,0.90625 0.14063,0.48438 0.3125,1 0.1875,0.5 0.39063,1.01563 0.20312,0.51562 0.4375,0.98437 0.34375,-0.96875 0.60937,-1.92187 0.26563,-0.96875 0.5,-1.98438 h 0.89063 q -0.34375,1.35938 -0.75,2.625 -0.40625,1.26563 -0.89063,2.375 -0.17187,0.40625 -0.375,0.70313 -0.20312,0.3125 -0.45312,0.5 -0.23438,0.20312 -0.54688,0.29687 -0.29687,0.0937 -0.67187,0.0937 -0.10938,0 -0.21875,-0.0156 -0.10938,-0.0156 -0.21875,-0.0469 -0.10938,-0.0156 -0.20313,-0.0469 -0.0781,-0.0156 -0.125,-0.0312 z"
       id="path83"
       inkscape:connector-curvature="0"
       style="fill:#000000;fill-rule:nonzero" />
    <path
       d="m 652.9554,278.14697 v 0 c 0,-15.04648 12.64887,-27.24408 28.25195,-27.24408 v 0 c 7.49292,0 14.6789,2.87035 19.97718,7.97961 5.29827,5.10926 8.27478,12.03888 8.27478,19.26447 v 0 c 0,15.04651 -12.64881,27.24411 -28.25196,27.24411 v 0 c -15.60308,0 -28.25195,-12.1976 -28.25195,-27.24411 z"
       id="path85"
       inkscape:connector-curvature="0"
       style="fill:#ffffff;fill-rule:evenodd" />
    <path
       d="m 652.9554,278.14697 v 0 c 0,-15.04648 12.64887,-27.24408 28.25195,-27.24408 v 0 c 7.49292,0 14.6789,2.87035 19.97718,7.97961 5.29827,5.10926 8.27478,12.03888 8.27478,19.26447 v 0 c 0,15.04651 -12.64881,27.24411 -28.25196,27.24411 v 0 c -15.60308,0 -28.25195,-12.1976 -28.25195,-27.24411 z"
       id="path87"
       inkscape:connector-curvature="0"
       style="fill-rule:evenodd;stroke:#000000;stroke-width:2;stroke-linecap:butt;stroke-linejoin:round;stroke-dasharray:2, 6" />
    <path
       d="m 662.0197,262.79266 h 42.8031 v 30.70865 h -42.8031 z"
       id="path89"
       inkscape:connector-curvature="0"
       style="fill:#000000;fill-opacity:0;fill-rule:evenodd" />
    <path
       d="m 671.5666,277.51828 q 0,-0.82813 0.23437,-1.45313 0.25,-0.64062 0.67188,-1.0625 0.4375,-0.4375 1,-0.64062 0.5625,-0.21875 1.1875,-0.21875 0.625,0 1.17187,0.21875 0.5625,0.20312 0.98438,0.64062 0.42187,0.42188 0.67187,1.0625 0.25,0.625 0.25,1.45313 0,0.82812 -0.25,1.46875 -0.25,0.625 -0.67187,1.04687 -0.42188,0.42188 -0.98438,0.64063 -0.54687,0.21875 -1.17187,0.21875 -0.625,0 -1.1875,-0.21875 -0.5625,-0.21875 -1,-0.64063 -0.42188,-0.42187 -0.67188,-1.04687 -0.23437,-0.64063 -0.23437,-1.46875 z m 0.95312,0 q 0,0.57812 0.14063,1.0625 0.15625,0.48437 0.42187,0.82812 0.28125,0.32813 0.67188,0.51563 0.40625,0.17187 0.89062,0.17187 0.5,0 0.89063,-0.17187 0.39062,-0.1875 0.65625,-0.51563 0.28125,-0.34375 0.42187,-0.82812 0.15625,-0.48438 0.15625,-1.0625 0,-0.59375 -0.15625,-1.0625 -0.14062,-0.48438 -0.42187,-0.8125 -0.26563,-0.34375 -0.65625,-0.53125 -0.39063,-0.1875 -0.89063,-0.1875 -0.48437,0 -0.89062,0.1875 -0.39063,0.1875 -0.67188,0.53125 -0.26562,0.32812 -0.42187,0.8125 -0.14063,0.46875 -0.14063,1.0625 z m 8.27289,-3.29688 q 1.35938,0 2.09375,0.51563 0.73438,0.51562 0.73438,1.54687 0,0.5625 -0.20313,0.96875 -0.20312,0.39063 -0.57812,0.64063 -0.375,0.23437 -0.92188,0.35937 -0.53125,0.10938 -1.21875,0.10938 h -0.71875 v 2.39062 h -0.90625 v -6.375 q 0.39063,-0.0937 0.85938,-0.125 0.46875,-0.0312 0.85937,-0.0312 z m 0.0781,0.79688 q -0.57813,0 -0.89063,0.0312 v 2.53125 h 0.6875 q 0.46875,0 0.82813,-0.0625 0.375,-0.0625 0.625,-0.20313 0.26562,-0.14062 0.40625,-0.39062 0.14062,-0.25 0.14062,-0.65625 0,-0.35938 -0.14062,-0.59375 -0.14063,-0.25 -0.39063,-0.39063 -0.25,-0.15625 -0.57812,-0.20312 -0.32813,-0.0625 -0.6875,-0.0625 z m 7.86487,5.73437 q -0.25,-0.67187 -0.54688,-1.53125 -0.29687,-0.85937 -0.53125,-1.79687 -0.25,0.9375 -0.54687,1.79687 -0.28125,0.85938 -0.54688,1.53125 h -0.75 q -0.42187,-0.95312 -0.84375,-2.1875 -0.40625,-1.23437 -0.76562,-2.65625 h 0.92187 q 0.0937,0.4375 0.21875,0.95313 0.14063,0.5 0.28125,1.01562 0.15625,0.51563 0.3125,1 0.15625,0.46875 0.29688,0.82813 0.15625,-0.45313 0.3125,-0.9375 0.15625,-0.48438 0.29687,-0.98438 0.14063,-0.5 0.26563,-0.98437 0.125,-0.48438 0.21875,-0.89063 h 0.71875 q 0.0781,0.40625 0.20312,0.89063 0.125,0.48437 0.26563,0.98437 0.14062,0.5 0.28125,0.98438 0.15625,0.48437 0.3125,0.9375 0.14062,-0.35938 0.29687,-0.82813 0.15625,-0.48437 0.29688,-1 0.15625,-0.51562 0.28125,-1.01562 0.14062,-0.51563 0.23437,-0.95313 h 0.89063 q -0.35938,1.42188 -0.78125,2.65625 -0.40625,1.23438 -0.82813,2.1875 z"
       id="path91"
       inkscape:connector-curvature="0"
       style="fill:#000000;fill-rule:nonzero" />
    <path
       d="m 280.79266,281.6483 28.91336,-0.063"
       id="path93"
       inkscape:connector-curvature="0"
       style="fill:#000000;fill-opacity:0;fill-rule:evenodd" />
    <path
       d="m 280.79266,281.6483 22.91339,-0.0499"
       id="path95"
       inkscape:connector-curvature="0"
       style="fill-rule:evenodd;stroke:#000000;stroke-width:1;stroke-linecap:butt;stroke-linejoin:round" />
    <path
       d="m 303.70966,283.2501 4.53448,-1.66159 -4.54168,-1.64185 z"
       id="path97"
       inkscape:connector-curvature="0"
       style="fill:#000000;fill-rule:evenodd;stroke:#000000;stroke-width:1;stroke-linecap:butt" />
    <path
       d="m 540.5866,281.6483 28.91339,-0.063"
       id="path99"
       inkscape:connector-curvature="0"
       style="fill:#000000;fill-opacity:0;fill-rule:evenodd" />
    <path
       d="m 540.5866,281.6483 22.91339,-0.0499"
       id="path101"
       inkscape:connector-curvature="0"
       style="fill-rule:evenodd;stroke:#000000;stroke-width:1;stroke-linecap:butt;stroke-linejoin:round" />
    <path
       d="m 563.5036,283.2501 4.53449,-1.66159 -4.54169,-1.64185 z"
       id="path103"
       inkscape:connector-curvature="0"
       style="fill:#000000;fill-rule:evenodd;stroke:#000000;stroke-width:1;stroke-linecap:butt" />
    <path
       d="m 394.03693,247.70764 h 77.35431"
       id="path105"
       inkscape:connector-curvature="0"
       style="fill:#000000;fill-opacity:0;fill-rule:evenodd" />
    <path
       d="m 394.0369,247.70764 h 73.92725"
       id="path107"
       inkscape:connector-curvature="0"
       style="fill-rule:evenodd;stroke:#000000;stroke-width:1;stroke-linecap:butt;stroke-linejoin:round;stroke-dasharray:4, 3" />
    <path
       d="m 467.96414,247.70764 -1.12457,1.12457 3.08978,-1.12457 -3.08978,-1.12459 z"
       id="path109"
       inkscape:connector-curvature="0"
       style="fill:#000000;fill-rule:evenodd;stroke:#000000;stroke-width:1;stroke-linecap:butt" />
    <path
       d="m 394.03693,247.70764 77.35431,74.48819"
       id="path111"
       inkscape:connector-curvature="0"
       style="fill:#000000;fill-opacity:0;fill-rule:evenodd" />
    <path
       d="m 394.0369,247.70764 74.88571,72.11102"
       id="path113"
       inkscape:connector-curvature="0"
       style="fill-rule:evenodd;stroke:#000000;stroke-width:1;stroke-linecap:butt;stroke-linejoin:round;stroke-dasharray:4, 3" />
    <path
       d="m 468.9226,319.81866 -1.59012,0.03 3.00571,1.3331 -1.44559,-2.95325 z"
       id="path115"
       inkscape:connector-curvature="0"
       style="fill:#000000;fill-rule:evenodd;stroke:#000000;stroke-width:1;stroke-linecap:butt" />
    <path
       d="m 394.03693,322.18213 h 77.35431"
       id="path117"
       inkscape:connector-curvature="0"
       style="fill:#000000;fill-opacity:0;fill-rule:evenodd" />
    <path
       d="m 397.464,322.18213 h 70.50015"
       id="path119"
       inkscape:connector-curvature="0"
       style="fill-rule:evenodd;stroke:#000000;stroke-width:1;stroke-linecap:butt;stroke-linejoin:round;stroke-dasharray:4, 3" />
    <path
       d="m 397.464,322.18213 1.1246,-1.12457 -3.08978,1.12457 3.08978,1.12457 z"
       id="path121"
       inkscape:connector-curvature="0"
       style="fill:#000000;fill-rule:evenodd;stroke:#000000;stroke-width:1;stroke-linecap:butt" />
    <path
       d="m 467.96414,322.18213 -1.12457,1.12457 3.08978,-1.12457 -3.08978,-1.12457 z"
       id="path123"
       inkscape:connector-curvature="0"
       style="fill:#000000;fill-rule:evenodd;stroke:#000000;stroke-width:1;stroke-linecap:butt" />
    <path
       d="m 378.021,117.05774 v 0 c 0,-29.084091 24.4939,-52.661415 54.70865,-52.661415 v 0 c 14.50964,0 28.42502,5.548241 38.68487,15.424171 10.25986,9.875931 16.02381,23.270564 16.02381,37.237244 v 0 c 0,29.08411 -24.4939,52.66142 -54.70868,52.66142 v 0 c -30.21475,0 -54.70865,-23.57731 -54.70865,-52.66142 z"
       id="path125"
       inkscape:connector-curvature="0"
       style="fill:#ffffff;fill-rule:evenodd" />
    <path
       d="m 378.021,117.05774 v 0 c 0,-29.084091 24.4939,-52.661415 54.70865,-52.661415 v 0 c 14.50964,0 28.42502,5.548241 38.68487,15.424171 10.25986,9.875931 16.02381,23.270564 16.02381,37.237244 v 0 c 0,29.08411 -24.4939,52.66142 -54.70868,52.66142 v 0 c -30.21475,0 -54.70865,-23.57731 -54.70865,-52.66142 z"
       id="path127"
       inkscape:connector-curvature="0"
       style="fill-rule:evenodd;stroke:#000000;stroke-width:2;stroke-linecap:butt;stroke-linejoin:round" />
    <path
       d="M 296.75345,79.94648 394.0448,79.820496"
       id="path129"
       inkscape:connector-curvature="0"
       style="fill:#000000;fill-opacity:0;fill-rule:evenodd" />
    <path
       d="m 296.75345,79.94648 90.43716,-0.117111"
       id="path131"
       inkscape:connector-curvature="0"
       style="fill-rule:evenodd;stroke:#000000;stroke-width:2;stroke-linecap:butt;stroke-linejoin:round" />
    <path
       d="m 387.1906,79.82938 -2.24625,2.252075 6.17661,-2.257171 -6.18244,-2.241158 z"
       id="path133"
       inkscape:connector-curvature="0"
       style="fill:#000000;fill-rule:evenodd;stroke:#000000;stroke-width:2;stroke-linecap:butt" />
    <path
       d="M 293.47787,155.20837 394.0448,154.29498"
       id="path135"
       inkscape:connector-curvature="0"
       style="fill:#000000;fill-opacity:0;fill-rule:evenodd" />
    <path
       d="m 300.33176,155.14612 93.71301,-0.85114"
       id="path137"
       inkscape:connector-curvature="0"
       style="fill-rule:evenodd;stroke:#000000;stroke-width:2;stroke-linecap:butt;stroke-linejoin:round" />
    <path
       d="m 300.33176,155.14612 2.22864,-2.2695 -6.15885,2.30521 6.19971,2.19294 z"
       id="path139"
       inkscape:connector-curvature="0"
       style="fill:#000000;fill-rule:evenodd;stroke:#000000;stroke-width:2;stroke-linecap:butt" />
    <path
       d="m 567.00507,79.69451 -95.59055,0.125984"
       id="path141"
       inkscape:connector-curvature="0"
       style="fill:#000000;fill-opacity:0;fill-rule:evenodd" />
    <path
       d="m 560.15094,79.703545 -88.73642,0.116951"
       id="path143"
       inkscape:connector-curvature="0"
       style="fill-rule:evenodd;stroke:#000000;stroke-width:2;stroke-linecap:butt;stroke-linejoin:round" />
    <path
       d="m 560.15094,79.703545 -2.24622,2.252129 6.17658,-2.257309 -6.1825,-2.241021 z"
       id="path145"
       inkscape:connector-curvature="0"
       style="fill:#000000;fill-rule:evenodd;stroke:#000000;stroke-width:2;stroke-linecap:butt" />
    <path
       d="m 567.47754,154.2005 -96.06302,0.0945"
       id="path147"
       inkscape:connector-curvature="0"
       style="fill:#000000;fill-opacity:0;fill-rule:evenodd" />
    <path
       d="m 560.62335,154.20724 -82.35465,0.081"
       id="path149"
       inkscape:connector-curvature="0"
       style="fill-rule:evenodd;stroke:#000000;stroke-width:2;stroke-linecap:butt;stroke-linejoin:round" />
    <path
       d="m 560.62335,154.20724 -2.24695,2.25137 6.17731,-2.25525 -6.18176,-2.24308 z"
       id="path151"
       inkscape:connector-curvature="0"
       style="fill:#000000;fill-rule:evenodd;stroke:#000000;stroke-width:2;stroke-linecap:butt" />
    <path
       d="m 478.2687,154.28825 2.24695,-2.25139 -6.17731,2.25525 6.18173,2.24309 z"
       id="path153"
       inkscape:connector-curvature="0"
       style="fill:#000000;fill-rule:evenodd;stroke:#000000;stroke-width:2;stroke-linecap:butt" />
    <path
       d="m 326.5118,51.6168 h 35.49606 V 82.325464 H 326.5118 Z"
       id="path155"
       inkscape:connector-curvature="0"
       style="fill:#000000;fill-opacity:0;fill-rule:evenodd" />
    <path
       d="m 340.6368,63.108047 v 0.78125 h -2.03125 v 5.6875 h -0.90625 v -5.6875 h -2.03125 v -0.78125 z m 1.02039,1.34375 q 0.53125,-0.203125 1.03125,-0.53125 0.5,-0.328125 0.92187,-0.8125 h 0.60938 v 6.46875 h -0.85938 v -5.265625 q -0.10937,0.109375 -0.28125,0.21875 -0.15625,0.109375 -0.35937,0.21875 -0.1875,0.09375 -0.40625,0.1875 -0.20313,0.09375 -0.39063,0.15625 z"
       id="path157"
       inkscape:connector-curvature="0"
       style="fill:#000000;fill-rule:nonzero" />
    <path
       d="m 326.02887,126.5958 h 35.49606 v 30.70866 h -35.49606 z"
       id="path159"
       inkscape:connector-curvature="0"
       style="fill:#000000;fill-opacity:0;fill-rule:evenodd" />
    <path
       d="m 340.15387,138.08705 v 0.78125 h -2.03125 v 5.6875 h -0.90625 v -5.6875 h -2.03125 v -0.78125 z m 4.50476,1.65625 q 0,0.32812 -0.14062,0.64062 -0.14063,0.3125 -0.35938,0.625 -0.21875,0.29688 -0.5,0.59375 -0.28125,0.29688 -0.5625,0.57813 -0.15625,0.15625 -0.375,0.375 -0.20312,0.20312 -0.39062,0.4375 -0.1875,0.23437 -0.3125,0.45312 -0.125,0.21875 -0.125,0.375 h 2.98437 v 0.73438 h -3.92187 q -0.0156,-0.0625 -0.0156,-0.10938 0,-0.0625 0,-0.10937 0,-0.4375 0.14063,-0.8125 0.15625,-0.375 0.39062,-0.70313 0.23438,-0.34375 0.51563,-0.64062 0.29687,-0.29688 0.5625,-0.57813 0.23437,-0.23437 0.4375,-0.45312 0.21875,-0.21875 0.375,-0.4375 0.17187,-0.21875 0.26562,-0.45313 0.10938,-0.23437 0.10938,-0.48437 0,-0.28125 -0.0937,-0.46875 -0.0937,-0.20313 -0.25,-0.32813 -0.14063,-0.14062 -0.34375,-0.20312 -0.1875,-0.0625 -0.42188,-0.0625 -0.26562,0 -0.5,0.0781 -0.21875,0.0781 -0.39062,0.17188 -0.17188,0.0937 -0.29688,0.20312 -0.125,0.10938 -0.1875,0.17188 l -0.4375,-0.625 q 0.0937,-0.0937 0.25,-0.21875 0.17188,-0.14063 0.40625,-0.26563 0.23438,-0.125 0.51563,-0.20312 0.29687,-0.0781 0.64062,-0.0781 1.01563,0 1.51563,0.46875 0.51562,0.46875 0.51562,1.32813 z"
       id="path161"
       inkscape:connector-curvature="0"
       style="fill:#000000;fill-rule:nonzero" />
    <path
       d="m 512.5302,51.6168 h 35.49603 V 82.325464 H 512.5302 Z"
       id="path163"
       inkscape:connector-curvature="0"
       style="fill:#000000;fill-opacity:0;fill-rule:evenodd" />
    <path
       d="m 526.6552,63.108047 v 0.78125 h -2.03125 v 5.6875 h -0.90625 v -5.6875 h -2.03125 v -0.78125 z m 2.11597,5.84375 q 0.3125,0 0.54687,-0.01563 0.23438,-0.01563 0.39063,-0.04687 v -1.453125 q -0.0937,-0.04687 -0.3125,-0.07813 -0.20313,-0.03125 -0.5,-0.03125 -0.1875,0 -0.40625,0.03125 -0.21875,0.03125 -0.40625,0.125 -0.1875,0.07813 -0.3125,0.234375 -0.10938,0.15625 -0.10938,0.40625 0,0.46875 0.29688,0.65625 0.29687,0.171875 0.8125,0.171875 z m -0.0781,-4.34375 q 0.51563,0 0.875,0.140625 0.35938,0.125 0.57813,0.375 0.23437,0.25 0.3125,0.59375 0.0937,0.328125 0.0937,0.75 v 3.03125 q -0.10938,0.01563 -0.3125,0.04687 -0.1875,0.03125 -0.45313,0.0625 -0.25,0.03125 -0.54687,0.04687 -0.28125,0.03125 -0.57813,0.03125 -0.40625,0 -0.75,-0.09375 -0.34375,-0.07813 -0.59375,-0.25 -0.25,-0.1875 -0.39062,-0.484375 -0.14063,-0.3125 -0.14063,-0.734375 0,-0.390625 0.15625,-0.671875 0.17188,-0.296875 0.4375,-0.46875 0.28125,-0.1875 0.65625,-0.265625 0.375,-0.09375 0.78125,-0.09375 0.14063,0 0.28125,0.01563 0.14063,0.01563 0.26563,0.04687 0.125,0.01563 0.21875,0.04687 0.0937,0.01563 0.125,0.01563 v -0.234375 q 0,-0.21875 -0.0469,-0.421875 -0.0469,-0.21875 -0.17187,-0.375 -0.10938,-0.171875 -0.32813,-0.265625 -0.20312,-0.09375 -0.54687,-0.09375 -0.42188,0 -0.75,0.0625 -0.3125,0.04687 -0.48438,0.109375 l -0.0937,-0.703125 q 0.17188,-0.07813 0.5625,-0.140625 0.39063,-0.07813 0.84375,-0.07813 z"
       id="path165"
       inkscape:connector-curvature="0"
       style="fill:#000000;fill-rule:nonzero" />
    <path
       d="m 512.5302,126.5958 h 35.49603 v 30.70866 H 512.5302 Z"
       id="path167"
       inkscape:connector-curvature="0"
       style="fill:#000000;fill-opacity:0;fill-rule:evenodd" />
    <path
       d="m 526.6552,138.08705 v 0.78125 h -2.03125 v 5.6875 h -0.90625 v -5.6875 h -2.03125 v -0.78125 z m 1.75476,1.82812 q 0.15625,-0.0937 0.48438,-0.20312 0.32812,-0.125 0.73437,-0.125 0.53125,0 0.9375,0.1875 0.40625,0.1875 0.6875,0.53125 0.28125,0.32812 0.42188,0.79687 0.14062,0.46875 0.14062,1.03125 0,0.57813 -0.17187,1.0625 -0.17188,0.46875 -0.48438,0.79688 -0.3125,0.3125 -0.76562,0.5 -0.45313,0.17187 -1.01563,0.17187 -0.59375,0 -1.0625,-0.0937 -0.46875,-0.0781 -0.76562,-0.15625 v -6.95312 l 0.85937,-0.14063 z m 0,3.89063 q 0.14063,0.0312 0.375,0.0625 0.23438,0.0312 0.59375,0.0312 0.70313,0 1.10938,-0.45313 0.42187,-0.46875 0.42187,-1.3125 0,-0.375 -0.0781,-0.70312 -0.0625,-0.32813 -0.23438,-0.5625 -0.17187,-0.23438 -0.4375,-0.375 -0.26562,-0.14063 -0.64062,-0.14063 -0.34375,0 -0.65625,0.125 -0.29688,0.125 -0.45313,0.25 z"
       id="path169"
       inkscape:connector-curvature="0"
       style="fill:#000000;fill-rule:nonzero" />
    <path
       d="m 415.86746,33.687664 h 42.80313 v 30.70866 h -42.80313 z"
       id="path171"
       inkscape:connector-curvature="0"
       style="fill:#000000;fill-opacity:0;fill-rule:evenodd" />
    <path
       d="m 425.41434,48.41329 q 0,-0.828125 0.23437,-1.453125 0.25,-0.640625 0.67188,-1.0625 0.4375,-0.4375 1,-0.640625 0.5625,-0.21875 1.1875,-0.21875 0.625,0 1.17187,0.21875 0.5625,0.203125 0.98438,0.640625 0.42187,0.421875 0.67187,1.0625 0.25,0.625 0.25,1.453125 0,0.828125 -0.25,1.46875 -0.25,0.625 -0.67187,1.046875 -0.42188,0.421875 -0.98438,0.640625 -0.54687,0.21875 -1.17187,0.21875 -0.625,0 -1.1875,-0.21875 -0.5625,-0.21875 -1,-0.640625 -0.42188,-0.421875 -0.67188,-1.046875 -0.23437,-0.640625 -0.23437,-1.46875 z m 0.95312,0 q 0,0.578125 0.14063,1.0625 0.15625,0.484375 0.42187,0.828125 0.28125,0.328125 0.67188,0.515625 0.40625,0.171875 0.89062,0.171875 0.5,0 0.89063,-0.171875 0.39062,-0.1875 0.65625,-0.515625 0.28125,-0.34375 0.42187,-0.828125 0.15625,-0.484375 0.15625,-1.0625 0,-0.59375 -0.15625,-1.0625 -0.14062,-0.484375 -0.42187,-0.8125 -0.26563,-0.34375 -0.65625,-0.53125 -0.39063,-0.1875 -0.89063,-0.1875 -0.48437,0 -0.89062,0.1875 -0.39063,0.1875 -0.67188,0.53125 -0.26562,0.328125 -0.42187,0.8125 -0.14063,0.46875 -0.14063,1.0625 z m 8.27289,-3.296875 q 1.35938,0 2.09375,0.515625 0.73438,0.515625 0.73438,1.546875 0,0.5625 -0.20313,0.96875 -0.20312,0.390625 -0.57812,0.640625 -0.375,0.234375 -0.92188,0.359375 -0.53125,0.109375 -1.21875,0.109375 h -0.71875 v 2.390625 h -0.90625 v -6.375 q 0.39063,-0.09375 0.85938,-0.125 0.46875,-0.03125 0.85937,-0.03125 z m 0.0781,0.796875 q -0.57813,0 -0.89063,0.03125 v 2.53125 h 0.6875 q 0.46875,0 0.82813,-0.0625 0.375,-0.0625 0.625,-0.203125 0.26562,-0.140625 0.40625,-0.390625 0.14062,-0.25 0.14062,-0.65625 0,-0.359375 -0.14062,-0.59375 -0.14063,-0.25 -0.39063,-0.390625 -0.25,-0.15625 -0.57812,-0.203125 -0.32813,-0.0625 -0.6875,-0.0625 z m 6.71838,5.734375 q -0.0937,-0.203125 -0.25,-0.453125 -0.14062,-0.25 -0.32812,-0.515625 -0.17188,-0.265625 -0.35938,-0.53125 -0.1875,-0.265625 -0.35937,-0.5 -0.17188,0.234375 -0.35938,0.5 -0.1875,0.265625 -0.35937,0.53125 -0.17188,0.265625 -0.32813,0.515625 -0.15625,0.25 -0.25,0.453125 h -0.89062 q 0.3125,-0.640625 0.76562,-1.296875 0.45313,-0.65625 0.90625,-1.25 l -1.60937,-2.296875 h 0.98437 l 1.15625,1.6875 1.17188,-1.6875 h 0.92187 l -1.57812,2.234375 q 0.45312,0.609375 0.92187,1.296875 0.46875,0.671875 0.79688,1.3125 z"
       id="path173"
       inkscape:connector-curvature="0"
       style="fill:#000000;fill-rule:nonzero" />
    <path
       d="m 246.79134,98.40682 h 42.80315 v 30.70866 h -42.80315 z"
       id="path175"
       inkscape:connector-curvature="0"
       style="fill:#000000;fill-opacity:0;fill-rule:evenodd" />
    <path
       d="m 260.47885,115.58557 v 0.78125 h -3.89062 v -6.46875 h 0.90625 v 5.6875 z m 1.76315,0.78125 h -0.85937 v -4.84375 h 0.85937 z m -0.4375,-5.73437 q -0.23437,0 -0.40625,-0.14063 -0.15625,-0.15625 -0.15625,-0.42187 0,-0.26563 0.15625,-0.40625 0.17188,-0.15625 0.40625,-0.15625 0.23438,0 0.39063,0.15625 0.17187,0.14062 0.17187,0.40625 0,0.26562 -0.17187,0.42187 -0.15625,0.14063 -0.39063,0.14063 z m 1.93814,1.03125 q 0.29688,-0.0781 0.78125,-0.15625 0.5,-0.0937 1.14063,-0.0937 0.57812,0 0.95312,0.17187 0.39063,0.15625 0.625,0.45313 0.23438,0.28125 0.32813,0.70312 0.0937,0.40625 0.0937,0.90625 v 2.71875 h -0.875 v -2.53125 q 0,-0.45312 -0.0625,-0.76562 -0.0625,-0.32813 -0.20313,-0.51563 -0.14062,-0.20312 -0.375,-0.28125 -0.23437,-0.0937 -0.57812,-0.0937 -0.14063,0 -0.29688,0.0156 -0.14062,0 -0.28125,0.0156 -0.125,0.0156 -0.23437,0.0312 -0.10938,0.0156 -0.15625,0.0312 v 4.09375 h -0.85938 z m 5.07309,2.28125 q 0,-0.64063 0.1875,-1.10938 0.1875,-0.48437 0.5,-0.79687 0.3125,-0.32813 0.70313,-0.48438 0.40625,-0.15625 0.82812,-0.15625 0.98438,0 1.5,0.60938 0.51563,0.60937 0.51563,1.85937 0,0.0625 0,0.15625 0,0.0781 0,0.15625 h -3.32813 q 0.0625,0.75 0.4375,1.14063 0.39063,0.39062 1.20313,0.39062 0.45312,0 0.76562,-0.0781 0.3125,-0.0781 0.46875,-0.15625 l 0.125,0.73437 q -0.15625,0.0781 -0.5625,0.17188 -0.39062,0.0937 -0.89062,0.0937 -0.64063,0 -1.10938,-0.1875 -0.45312,-0.1875 -0.75,-0.51563 -0.29687,-0.34375 -0.45312,-0.79687 -0.14063,-0.46875 -0.14063,-1.03125 z m 3.34375,-0.46875 q 0,-0.59375 -0.3125,-0.96875 -0.29687,-0.375 -0.82812,-0.375 -0.29688,0 -0.53125,0.125 -0.21875,0.10937 -0.375,0.29687 -0.15625,0.1875 -0.25,0.4375 -0.0937,0.23438 -0.10938,0.48438 z m 5.30817,0.8125 q 0,0.46875 -0.0937,0.875 -0.0937,0.39062 -0.34375,0.70312 -0.25,0.29688 -0.67187,0.46875 -0.40625,0.17188 -1.03125,0.17188 -0.3125,0 -0.57813,-0.0625 -0.26562,-0.0469 -0.48437,-0.125 -0.21875,-0.0781 -0.375,-0.15625 -0.15625,-0.0937 -0.25,-0.17188 l 0.34375,-0.71875 q 0.20312,0.14063 0.51562,0.29688 0.3125,0.14062 0.78125,0.14062 0.67188,0 0.96875,-0.32812 0.3125,-0.34375 0.3125,-1.1875 v -4.29688 h 0.90625 z"
       id="path177"
       inkscape:connector-curvature="0"
       style="fill:#000000;fill-rule:nonzero" />
    <path
       d="m 563.2917,98.40682 h 53.70074 v 30.70866 H 563.2917 Z"
       id="path179"
       inkscape:connector-curvature="0"
       style="fill:#000000;fill-opacity:0;fill-rule:evenodd" />
    <path
       d="m 576.9792,115.58557 v 0.78125 h -3.89063 v -6.46875 h 0.90625 v 5.6875 z m 1.76318,0.78125 h -0.85937 v -4.84375 h 0.85937 z m -0.4375,-5.73437 q -0.23437,0 -0.40625,-0.14063 -0.15625,-0.15625 -0.15625,-0.42187 0,-0.26563 0.15625,-0.40625 0.17188,-0.15625 0.40625,-0.15625 0.23438,0 0.39063,0.15625 0.17187,0.14062 0.17187,0.40625 0,0.26562 -0.17187,0.42187 -0.15625,0.14063 -0.39063,0.14063 z m 1.93811,1.03125 q 0.29688,-0.0781 0.78125,-0.15625 0.5,-0.0937 1.14063,-0.0937 0.57812,0 0.95312,0.17187 0.39063,0.15625 0.625,0.45313 0.23438,0.28125 0.32813,0.70312 0.0937,0.40625 0.0937,0.90625 v 2.71875 h -0.875 v -2.53125 q 0,-0.45312 -0.0625,-0.76562 -0.0625,-0.32813 -0.20313,-0.51563 -0.14062,-0.20312 -0.375,-0.28125 -0.23437,-0.0937 -0.57812,-0.0937 -0.14063,0 -0.29688,0.0156 -0.14062,0 -0.28125,0.0156 -0.125,0.0156 -0.23437,0.0312 -0.10938,0.0156 -0.15625,0.0312 v 4.09375 h -0.85938 z m 5.07312,2.28125 q 0,-0.64063 0.1875,-1.10938 0.1875,-0.48437 0.5,-0.79687 0.3125,-0.32813 0.70313,-0.48438 0.40625,-0.15625 0.82812,-0.15625 0.98438,0 1.5,0.60938 0.51563,0.60937 0.51563,1.85937 0,0.0625 0,0.15625 0,0.0781 0,0.15625 h -3.32813 q 0.0625,0.75 0.4375,1.14063 0.39063,0.39062 1.20313,0.39062 0.45312,0 0.76562,-0.0781 0.3125,-0.0781 0.46875,-0.15625 l 0.125,0.73437 q -0.15625,0.0781 -0.5625,0.17188 -0.39062,0.0937 -0.89062,0.0937 -0.64063,0 -1.10938,-0.1875 -0.45312,-0.1875 -0.75,-0.51563 -0.29687,-0.34375 -0.45312,-0.79687 -0.14063,-0.46875 -0.14063,-1.03125 z m 3.34375,-0.46875 q 0,-0.59375 -0.3125,-0.96875 -0.29687,-0.375 -0.82812,-0.375 -0.29688,0 -0.53125,0.125 -0.21875,0.10937 -0.375,0.29687 -0.15625,0.1875 -0.25,0.4375 -0.0937,0.23438 -0.10938,0.48438 z m 6.99567,-3.57813 q -0.29687,0.32813 -0.65625,0.71875 -0.35937,0.375 -0.76562,0.78125 -0.39063,0.40625 -0.78125,0.79688 -0.39063,0.39062 -0.73438,0.73437 0.39063,0.28125 0.84375,0.6875 0.45313,0.40625 0.875,0.875 0.42188,0.46875 0.79688,0.95313 0.39062,0.48437 0.64062,0.92187 h -1.0625 q -0.28125,-0.4375 -0.65625,-0.875 -0.35937,-0.45312 -0.76562,-0.85937 -0.40625,-0.40625 -0.82813,-0.75 -0.40625,-0.34375 -0.79687,-0.57813 v 3.0625 h -0.90625 v -6.46875 h 0.90625 v 2.85938 q 0.32812,-0.3125 0.71875,-0.6875 0.39062,-0.39063 0.76562,-0.78125 0.39063,-0.39063 0.73438,-0.75 0.34375,-0.35938 0.57812,-0.64063 z"
       id="path181"
       inkscape:connector-curvature="0"
       style="fill:#000000;fill-rule:nonzero" />
    <path
       d="m 218.49606,89.25197 h 39.49606 v 42.01575 h -39.49606 z"
       id="path183"
       inkscape:connector-curvature="0"
       style="fill:#000000;fill-opacity:0;fill-rule:evenodd" />
    <path
       d="m 229.18356,116.17197 v -1.875 h 1.875 v 1.875 z m 5.1833,0 v -1.875 h 1.875 v 1.875 z m 5.18331,0 v -1.875 h 1.875 v 1.875 z"
       id="path185"
       inkscape:connector-curvature="0"
       style="fill:#000000;fill-rule:nonzero" />
    <path
       d="m 601.99475,89.25197 h 39.49603 v 42.01575 h -39.49603 z"
       id="path187"
       inkscape:connector-curvature="0"
       style="fill:#000000;fill-opacity:0;fill-rule:evenodd" />
    <path
       d="m 612.68225,116.17197 v -1.875 h 1.875 v 1.875 z m 5.18329,0 v -1.875 h 1.875 v 1.875 z m 5.18329,0 v -1.875 h 1.875 v 1.875 z"
       id="path189"
       inkscape:connector-curvature="0"
       style="fill:#000000;fill-rule:nonzero" />
    <path
       d="m 155.99213,117.4462 v 0 c 0,-15.0465 12.64883,-27.244095 28.25197,-27.244095 v 0 c 7.49289,0 14.67888,2.870346 19.97716,7.979607 5.29828,5.109258 8.27481,12.038898 8.27481,19.264488 v 0 c 0,15.04649 -12.64884,27.24409 -28.25197,27.24409 v 0 c -15.60314,0 -28.25197,-12.1976 -28.25197,-27.24409 z"
       id="path191"
       inkscape:connector-curvature="0"
       style="fill:#ffffff;fill-rule:evenodd" />
    <path
       d="m 155.99213,117.4462 v 0 c 0,-15.0465 12.64883,-27.244095 28.25197,-27.244095 v 0 c 7.49289,0 14.67888,2.870346 19.97716,7.979607 5.29828,5.109258 8.27481,12.038898 8.27481,19.264488 v 0 c 0,15.04649 -12.64884,27.24409 -28.25197,27.24409 v 0 c -15.60314,0 -28.25197,-12.1976 -28.25197,-27.24409 z"
       id="path193"
       inkscape:connector-curvature="0"
       style="fill-rule:evenodd;stroke:#000000;stroke-width:2;stroke-linecap:butt;stroke-linejoin:round;stroke-dasharray:2, 6" />
    <path
       d="m 167.55511,102.09187 h 42.80315 v 30.70865 h -42.80315 z"
       id="path195"
       inkscape:connector-curvature="0"
       style="fill:#000000;fill-opacity:0;fill-rule:evenodd" />
    <path
       d="m 177.10199,116.81749 q 0,-0.82812 0.23437,-1.45312 0.25,-0.64063 0.67188,-1.0625 0.4375,-0.4375 1,-0.64063 0.5625,-0.21875 1.1875,-0.21875 0.625,0 1.17187,0.21875 0.5625,0.20313 0.98438,0.64063 0.42187,0.42187 0.67187,1.0625 0.25,0.625 0.25,1.45312 0,0.82813 -0.25,1.46875 -0.25,0.625 -0.67187,1.04688 -0.42188,0.42187 -0.98438,0.64062 -0.54687,0.21875 -1.17187,0.21875 -0.625,0 -1.1875,-0.21875 -0.5625,-0.21875 -1,-0.64062 -0.42188,-0.42188 -0.67188,-1.04688 -0.23437,-0.64062 -0.23437,-1.46875 z m 0.95312,0 q 0,0.57813 0.14063,1.0625 0.15625,0.48438 0.42187,0.82813 0.28125,0.32812 0.67188,0.51562 0.40625,0.17188 0.89062,0.17188 0.5,0 0.89063,-0.17188 0.39062,-0.1875 0.65625,-0.51562 0.28125,-0.34375 0.42187,-0.82813 0.15625,-0.48437 0.15625,-1.0625 0,-0.59375 -0.15625,-1.0625 -0.14062,-0.48437 -0.42187,-0.8125 -0.26563,-0.34375 -0.65625,-0.53125 -0.39063,-0.1875 -0.89063,-0.1875 -0.48437,0 -0.89062,0.1875 -0.39063,0.1875 -0.67188,0.53125 -0.26562,0.32813 -0.42187,0.8125 -0.14063,0.46875 -0.14063,1.0625 z m 8.27291,-3.29687 q 1.35937,0 2.09375,0.51562 0.73437,0.51563 0.73437,1.54688 0,0.5625 -0.20312,0.96875 -0.20313,0.39062 -0.57813,0.64062 -0.375,0.23438 -0.92187,0.35938 -0.53125,0.10937 -1.21875,0.10937 h -0.71875 v 2.39063 h -0.90625 v -6.375 q 0.39062,-0.0937 0.85937,-0.125 0.46875,-0.0312 0.85938,-0.0312 z m 0.0781,0.79687 q -0.57812,0 -0.89062,0.0312 v 2.53125 h 0.6875 q 0.46875,0 0.82812,-0.0625 0.375,-0.0625 0.625,-0.20312 0.26563,-0.14063 0.40625,-0.39063 0.14063,-0.25 0.14063,-0.65625 0,-0.35937 -0.14063,-0.59375 -0.14062,-0.25 -0.39062,-0.39062 -0.25,-0.15625 -0.57813,-0.20313 -0.32812,-0.0625 -0.6875,-0.0625 z m 3.34297,6.64063 q 0.10938,0.0469 0.26563,0.0781 0.17187,0.0469 0.32812,0.0469 0.51563,0 0.79688,-0.23438 0.29687,-0.21875 0.53125,-0.73437 -0.59375,-1.10938 -1.10938,-2.35938 -0.5,-1.26562 -0.82812,-2.54687 h 0.92187 q 0.10938,0.40625 0.25,0.90625 0.14063,0.48437 0.3125,1 0.1875,0.5 0.39063,1.01562 0.20312,0.51563 0.4375,0.98438 0.34375,-0.96875 0.60937,-1.92188 0.26563,-0.96875 0.5,-1.98437 h 0.89063 q -0.34375,1.35937 -0.75,2.625 -0.40625,1.26562 -0.89063,2.375 -0.17187,0.40625 -0.375,0.70312 -0.20312,0.3125 -0.45312,0.5 -0.23438,0.20313 -0.54688,0.29688 -0.29687,0.0937 -0.67187,0.0937 -0.10938,0 -0.21875,-0.0156 -0.10938,-0.0156 -0.21875,-0.0469 -0.10938,-0.0156 -0.20313,-0.0469 -0.0781,-0.0156 -0.125,-0.0312 z"
       id="path197"
       inkscape:connector-curvature="0"
       style="fill:#000000;fill-rule:nonzero" />
    <path
       d="m 652.96326,110.25984 v 0 c 0,-15.046494 12.64886,-27.244095 28.25195,-27.244095 v 0 c 7.49292,0 14.6789,2.870354 19.97718,7.979614 5.29827,5.109253 8.27478,12.038891 8.27478,19.264481 v 0 c 0,15.0465 -12.64881,27.24409 -28.25196,27.24409 v 0 c -15.60309,0 -28.25195,-12.19759 -28.25195,-27.24409 z"
       id="path199"
       inkscape:connector-curvature="0"
       style="fill:#ffffff;fill-rule:evenodd" />
    <path
       d="m 652.96326,110.25984 v 0 c 0,-15.046494 12.64886,-27.244095 28.25195,-27.244095 v 0 c 7.49292,0 14.6789,2.870354 19.97718,7.979614 5.29827,5.109253 8.27478,12.038891 8.27478,19.264481 v 0 c 0,15.0465 -12.64881,27.24409 -28.25196,27.24409 v 0 c -15.60309,0 -28.25195,-12.19759 -28.25195,-27.24409 z"
       id="path201"
       inkscape:connector-curvature="0"
       style="fill-rule:evenodd;stroke:#000000;stroke-width:2;stroke-linecap:butt;stroke-linejoin:round;stroke-dasharray:2, 6" />
    <path
       d="m 662.0276,94.90551 h 42.8031 v 30.70866 h -42.8031 z"
       id="path203"
       inkscape:connector-curvature="0"
       style="fill:#000000;fill-opacity:0;fill-rule:evenodd" />
    <path
       d="m 671.57446,109.63113 q 0,-0.82812 0.23438,-1.45312 0.25,-0.64063 0.67187,-1.0625 0.4375,-0.4375 1,-0.64063 0.5625,-0.21875 1.1875,-0.21875 0.625,0 1.17188,0.21875 0.5625,0.20313 0.98437,0.64063 0.42188,0.42187 0.67188,1.0625 0.25,0.625 0.25,1.45312 0,0.82813 -0.25,1.46875 -0.25,0.625 -0.67188,1.04688 -0.42187,0.42187 -0.98437,0.64062 -0.54688,0.21875 -1.17188,0.21875 -0.625,0 -1.1875,-0.21875 -0.5625,-0.21875 -1,-0.64062 -0.42187,-0.42188 -0.67187,-1.04688 -0.23438,-0.64062 -0.23438,-1.46875 z m 0.95313,0 q 0,0.57813 0.14062,1.0625 0.15625,0.48438 0.42188,0.82813 0.28125,0.32812 0.67187,0.51562 0.40625,0.17188 0.89063,0.17188 0.5,0 0.89062,-0.17188 0.39063,-0.1875 0.65625,-0.51562 0.28125,-0.34375 0.42188,-0.82813 0.15625,-0.48437 0.15625,-1.0625 0,-0.59375 -0.15625,-1.0625 -0.14063,-0.48437 -0.42188,-0.8125 -0.26562,-0.34375 -0.65625,-0.53125 -0.39062,-0.1875 -0.89062,-0.1875 -0.48438,0 -0.89063,0.1875 -0.39062,0.1875 -0.67187,0.53125 -0.26563,0.32813 -0.42188,0.8125 -0.14062,0.46875 -0.14062,1.0625 z m 8.27288,-3.29687 q 1.35938,0 2.09375,0.51562 0.73438,0.51563 0.73438,1.54688 0,0.5625 -0.20313,0.96875 -0.20312,0.39062 -0.57812,0.64062 -0.375,0.23438 -0.92188,0.35938 -0.53125,0.10937 -1.21875,0.10937 h -0.71875 v 2.39063 h -0.90625 v -6.375 q 0.39063,-0.0937 0.85938,-0.125 0.46875,-0.0312 0.85937,-0.0312 z m 0.0781,0.79687 q -0.57813,0 -0.89063,0.0312 v 2.53125 h 0.6875 q 0.46875,0 0.82813,-0.0625 0.375,-0.0625 0.625,-0.20312 0.26562,-0.14063 0.40625,-0.39063 0.14062,-0.25 0.14062,-0.65625 0,-0.35937 -0.14062,-0.59375 -0.14063,-0.25 -0.39063,-0.39062 -0.25,-0.15625 -0.57812,-0.20313 -0.32813,-0.0625 -0.6875,-0.0625 z m 7.86487,5.73438 q -0.25,-0.67188 -0.54688,-1.53125 -0.29687,-0.85938 -0.53125,-1.79688 -0.25,0.9375 -0.54687,1.79688 -0.28125,0.85937 -0.54688,1.53125 h -0.75 q -0.42187,-0.95313 -0.84375,-2.1875 -0.40625,-1.23438 -0.76562,-2.65625 h 0.92187 q 0.0937,0.4375 0.21875,0.95312 0.14063,0.5 0.28125,1.01563 0.15625,0.51562 0.3125,1 0.15625,0.46875 0.29688,0.82812 0.15625,-0.45312 0.3125,-0.9375 0.15625,-0.48437 0.29687,-0.98437 0.14063,-0.5 0.26563,-0.98438 0.125,-0.48437 0.21875,-0.89062 h 0.71875 q 0.0781,0.40625 0.20312,0.89062 0.125,0.48438 0.26563,0.98438 0.14062,0.5 0.28125,0.98437 0.15625,0.48438 0.3125,0.9375 0.14062,-0.35937 0.29687,-0.82812 0.15625,-0.48438 0.29688,-1 0.15625,-0.51563 0.28125,-1.01563 0.14062,-0.51562 0.23437,-0.95312 h 0.89063 q -0.35938,1.42187 -0.78125,2.65625 -0.40625,1.23437 -0.82813,2.1875 z"
       id="path205"
       inkscape:connector-curvature="0"
       style="fill:#000000;fill-rule:nonzero" />
    <path
       d="m 280.80054,113.76115 28.91336,-0.063"
       id="path207"
       inkscape:connector-curvature="0"
       style="fill:#000000;fill-opacity:0;fill-rule:evenodd" />
    <path
       d="m 280.80054,113.76115 22.91339,-0.0499"
       id="path209"
       inkscape:connector-curvature="0"
       style="fill-rule:evenodd;stroke:#000000;stroke-width:1;stroke-linecap:butt;stroke-linejoin:round" />
    <path
       d="m 303.71753,115.36296 4.53449,-1.66161 -4.54169,-1.64184 z"
       id="path211"
       inkscape:connector-curvature="0"
       style="fill:#000000;fill-rule:evenodd;stroke:#000000;stroke-width:1;stroke-linecap:butt" />
    <path
       d="m 540.5945,113.76115 28.91339,-0.063"
       id="path213"
       inkscape:connector-curvature="0"
       style="fill:#000000;fill-opacity:0;fill-rule:evenodd" />
    <path
       d="m 540.5945,113.76115 22.91339,-0.0499"
       id="path215"
       inkscape:connector-curvature="0"
       style="fill-rule:evenodd;stroke:#000000;stroke-width:1;stroke-linecap:butt;stroke-linejoin:round" />
    <path
       d="m 563.5115,115.36296 4.53448,-1.66161 -4.54168,-1.64184 z"
       id="path217"
       inkscape:connector-curvature="0"
       style="fill:#000000;fill-rule:evenodd;stroke:#000000;stroke-width:1;stroke-linecap:butt" />
    <path
       d="m 410.98657,76.32284 h 52.56692 v 67.87402 h -52.56692 z"
       id="path219"
       inkscape:connector-curvature="0"
       style="fill:#000000;fill-opacity:0;fill-rule:evenodd" />
    <path
       d="m 429.20532,116.67596 q -0.0156,-0.70312 -0.0156,-1.0625 0,-2.0625 0.57813,-3.57812 0.4375,-1.125 1.39062,-2.28125 0.70313,-0.84375 2.53125,-2.45313 1.82813,-1.60937 2.375,-2.5625 0.54688,-0.95312 0.54688,-2.09375 0,-2.04687 -1.60938,-3.59375 -1.59375,-1.5625 -3.92187,-1.5625 -2.25,0 -3.75,1.40625 -1.5,1.40625 -1.96875,4.39063 l -3.60938,-0.42188 q 0.48438,-4 2.89063,-6.125 2.42187,-2.140625 6.375,-2.140625 4.20312,0 6.70312,2.296875 2.5,2.28125 2.5,5.51563 0,1.875 -0.875,3.46875 -0.875,1.57812 -3.4375,3.84375 -1.71875,1.51562 -2.25,2.25 -0.53125,0.71875 -0.78125,1.65625 -0.25,0.9375 -0.29687,3.04687 z m -0.21875,7.04688 v -4 h 4.01562 v 4 z"
       id="path221"
       inkscape:connector-curvature="0"
       style="fill:#000000;fill-rule:nonzero" />
    <path
       d="m 101.99213,94.01312 h 48 v 46.86615 h -48 z"
       id="path223"
       inkscape:connector-curvature="0"
       style="fill:#000000;fill-opacity:0;fill-rule:evenodd" />
    <path
       d="m 116.789,123.2575 q 0.75,0 1.32813,-0.0312 0.57812,-0.0312 0.96875,-0.125 v -3.51563 q -0.23438,-0.10937 -0.75,-0.1875 -0.5,-0.0781 -1.23438,-0.0781 -0.46875,0 -1,0.0625 -0.53125,0.0625 -0.98437,0.28125 -0.4375,0.21875 -0.73438,0.59375 -0.28125,0.375 -0.28125,0.98437 0,1.125 0.71875,1.57813 0.71875,0.4375 1.96875,0.4375 z m -0.17187,-10.5625 q 1.26562,0 2.125,0.32812 0.875,0.32813 1.40625,0.9375 0.54687,0.59375 0.76562,1.42188 0.23438,0.82812 0.23438,1.82812 V 124.57 q -0.28125,0.0469 -0.76563,0.125 -0.48437,0.0781 -1.09375,0.14062 -0.60937,0.0781 -1.32812,0.125 -0.71875,0.0625 -1.42188,0.0625 -1,0 -1.84375,-0.20312 -0.82812,-0.20313 -1.4375,-0.64063 -0.60937,-0.45312 -0.95312,-1.17187 -0.34375,-0.71875 -0.34375,-1.75 0,-0.96875 0.39062,-1.67188 0.40625,-0.70312 1.07813,-1.125 0.6875,-0.4375 1.59375,-0.64062 0.90625,-0.20313 1.90625,-0.20313 0.3125,0 0.65625,0.0312 0.34375,0.0312 0.64062,0.0937 0.3125,0.0469 0.53125,0.0937 0.23438,0.0469 0.32813,0.0781 V 117.32 q 0,-0.51563 -0.125,-1.03125 -0.10938,-0.51563 -0.40625,-0.90625 -0.29688,-0.39063 -0.8125,-0.625 -0.5,-0.25 -1.3125,-0.25 -1.04688,0 -1.82813,0.15625 -0.78125,0.14062 -1.15625,0.29687 l -0.25,-1.73437 q 0.40625,-0.1875 1.35938,-0.35938 0.95312,-0.17187 2.0625,-0.17187 z m 9.12628,5.29687 q 0,-2.89062 -0.84375,-5.35937 -0.82813,-2.46875 -2.46875,-4.57813 l 1.5,-1.01562 q 1.76562,2.14062 2.84375,4.95312 1.07812,2.79688 1.07812,6 0,3.21875 -1.07812,6.01563 -1.07813,2.79687 -2.84375,4.95312 l -1.5,-1.01562 q 1.64062,-2.10938 2.46875,-4.57813 0.84375,-2.46875 0.84375,-5.375 z"
       id="path225"
       inkscape:connector-curvature="0"
       style="fill:#000000;fill-rule:nonzero" />
    <path
       d="m 101.98425,263.55905 h 48 v 46.86615 h -48 z"
       id="path227"
       inkscape:connector-curvature="0"
       style="fill:#000000;fill-opacity:0;fill-rule:evenodd" />
    <path
       d="m 114.90613,283.05344 q 0.375,-0.25 1.15625,-0.51562 0.79688,-0.26563 1.8125,-0.26563 1.26563,0 2.25,0.45313 0.98438,0.45312 1.65625,1.26562 0.6875,0.8125 1.03125,1.95313 0.35938,1.125 0.35938,2.48437 0,1.42188 -0.42188,2.57813 -0.42187,1.14062 -1.1875,1.9375 -0.76562,0.78125 -1.85937,1.21875 -1.07813,0.42187 -2.4375,0.42187 -1.48438,0 -2.625,-0.20312 -1.125,-0.20313 -1.84375,-0.40625 v -16.875 l 2.10937,-0.35938 z m 0,9.4375 q 0.3125,0.0781 0.89063,0.17188 0.57812,0.0781 1.4375,0.0781 1.70312,0 2.71875,-1.125 1.01562,-1.125 1.01562,-3.1875 0,-0.90625 -0.1875,-1.6875 -0.17187,-0.79687 -0.57812,-1.375 -0.40625,-0.57812 -1.0625,-0.90625 -0.64063,-0.32812 -1.54688,-0.32812 -0.85937,0 -1.59375,0.29687 -0.71875,0.28125 -1.09375,0.60938 z m 12.27937,-4.95312 q 0,-2.89063 -0.84375,-5.35938 -0.82812,-2.46875 -2.46875,-4.57812 l 1.5,-1.01563 q 1.76563,2.14063 2.84375,4.95313 1.07813,2.79687 1.07813,6 0,3.21875 -1.07813,6.01562 -1.07812,2.79688 -2.84375,4.95313 l -1.5,-1.01563 q 1.64063,-2.10937 2.46875,-4.57812 0.84375,-2.46875 0.84375,-5.375 z"
       id="path229"
       inkscape:connector-curvature="0"
       style="fill:#000000;fill-rule:nonzero" />
    <path
       d="M 106,197 H 723.0079"
       id="path231"
       inkscape:connector-curvature="0"
       style="fill:#000000;fill-opacity:0;fill-rule:evenodd" />
    <path
       d="M 106,197 H 723.0079"
       id="path233"
       inkscape:connector-curvature="0"
       style="fill-rule:evenodd;stroke:#000000;stroke-width:1;stroke-linecap:butt;stroke-linejoin:round;stroke-dasharray:4, 3" />
  </g>
  <rect
     style="fill:#000000;fill-opacity:0"
     id="rect245"
     width="649.2204"
     height="309.15253"
     x="0"
     y="0"
     ry="5.3916998" />
</svg>
